<svg id="Layer_1" xmlns="http://www.w3.org/2000/svg" viewBox="0 0 420.3 157.4"><style>.st0{fill:#e7b12e}</style><path d="M159.2 45.6c0-13.3-27.3-22.3-36.1-2.6-6.8-15.4-28.4-14.9-34.3.1v-7.9c0-1.2-1.1-2.3-2.3-2.3H74.2c-1.2 0-2.3 1.1-2.3 2.3v66.4c0 1.2 1.1 2.3 2.3 2.3h13.2c1.2 0 2.2-1.1 2.2-2.3v-42c0-4.8 2-10.1 7-11.2 5.5-1.2 10 1.8 10 8.2v45.1c0 1.2 1.1 2.3 2.3 2.3h13.4c1.2 0 2.3-1.1 2.3-2.3V57c0-10.1 16.9-12.8 16.9 0v44.7c0 1.2 1.1 2.3 2.3 2.3H157c1.2 0 2.3-1.1 2.3-2.3l-.1-56.1zm131.1-10.1c0-1.2-1.1-2.3-2.3-2.3h-43.4c-.6 0-1.2.3-1.6.7-.4.4-.6 1-.6 1.6v9.2c0 1.2 1.2 2.2 2.3 2.2h22.8l-26 38c-1.5 2.2-1.2 3.5-1.2 4v10.6c0 2.3.8 3.3 3.4 2.2 15.9-6.7 32.8-7.1 45.6.5 1 .6 2.3-.1 2.3-1.8V88.5c0-.8-.4-1.5-1.1-1.9-7.4-4.6-16.7-5.9-25.8-5.8L289 47c1.2-1.6 1.2-3.3 1.2-3.8l.1-7.7zm47.4 33.1c0 12.9-.5 23.3-10.1 23.3-9.2 0-10.1-10.4-10.1-23.3s.8-23.4 10.1-23.3c9 .2 10.1 10.5 10.1 23.3zm19.5-.2c0-21.2-12.4-37.2-29.7-37-17.3.2-29.7 16.5-29.7 37.2 0 21.3 12.6 37.5 30 37 17.3-.5 29.4-16.7 29.4-37.2zm63.1-17.8c0-10.5-6.4-19.2-21.3-18.7-6.9.2-12.3 5.5-15.3 12.9v-9.6c0-1.2-1.1-2.3-2.3-2.3h-12.7c-1.2 0-2.3 1.1-2.3 2.3v66.6c0 1.2 1.1 2.3 2.3 2.3H382c1.2 0 2.3-1.1 2.3-2.3V59.9c0-6.2 5.3-11.5 10.3-11.7 4.1-.1 8.1 3.8 8.1 8.2v45.4c0 1.2 1.1 2.3 2.3 2.3h13c1.2 0 2.3-1.1 2.3-2.3V50.6zm-211.2 19v8.6c0 6.7-4.4 12.4-8.1 13.5-7.2 2.2-11.9-3.4-11.8-9.4.2-7.6 6.9-12.2 12.5-12.4l7.4-.3zM227 49.2c0-11.2-9.7-18.3-28.4-17.7-11.5.4-22.4 4.7-25.2 18.5-.1.6 0 1.3.4 1.8s1 .9 1.6.9L187 54c1.1.1 2.3-.7 2.5-1.8.8-4.4 4.2-7.6 9-7.6 7.2 0 10.4 3.7 10.4 8.7v6.5l-14.4 1.1c-12.2.9-23.6 8.9-23.8 24.1-.2 14 9.1 20.7 21.8 20.1 7.6-.4 14.2-3.6 19.2-9.2l7.2 8c.4.5 1 .7 1.6.8.6 0 1.2-.2 1.7-.6l9.4-9c.8-.8.9-2.1.3-3l-3.4-4.5c-.7-.9-1.4-5-1.4-7.3V49.2zM38.4 69.6v8.6c0 6.7-4.4 12.4-8.1 13.5-7.2 2.2-11.9-3.4-11.8-9.4.2-7.6 6.9-12.2 12.5-12.4l7.4-.3zm17.9-20.5c0-11.2-9.7-18.3-28.4-17.7-11.5.5-22.4 4.7-25.2 18.6-.1.6 0 1.3.4 1.8s1 .9 1.6.9L16.4 54c1.1.1 2.3-.7 2.5-1.8.8-4.4 4.2-7.6 9-7.6 7.2 0 10.4 3.7 10.4 8.7v6.5l-14.4 1.1C11.6 61.8.2 69.8 0 85c-.2 14 9.1 20.7 21.8 20.1 7.6-.4 14.2-3.6 19.2-9.2l7.2 8c.4.4 1 .7 1.6.8.6 0 1.2-.2 1.7-.6l9.4-9c.8-.8.9-2.1.3-3l-3.4-4.5c-.7-.9-1.4-5-1.4-7.4V49.1z"/><path class="st0" d="M265.2 144.2c-2.7 6.4 3.8 2.2 4.6 1.5 8.8-7.9 15.2-31.8 11.3-35.4-5-4.6-28.3-4.5-38.6 3-4.3 3.1-1.9 3.8 2.6 3.5 7.9-.5 15.1-1 21.2-.5 5.8.5 6.1 3.3 4.6 9.4-1.6 7-2.7 11.3-5.7 18.5z"/><path class="st0" d="M255.7 125c-60 24.5-129.2 21.1-186.1-8.9-.8-.4-3.6-2-6.8-3.6-2.5-1.2-3-.8-3.4-.4-.6.6-.3 1.7.5 2.5 33.4 30.1 73.6 44.6 117.5 42.7 33.5-1.5 64.7-13.7 82.6-26.8 2.6-1.9 3.6-4.4 2.5-5.6-1-1.3-4-1.1-6.8.1z"/></svg>