<?xml version="1.0" encoding="utf-8"?>
<!-- Generator: Adobe Illustrator 21.1.0, SVG Export Plug-In . SVG Version: 6.00 Build 0)  -->
<svg version="1.1" id="Layer_1" xmlns="http://www.w3.org/2000/svg" xmlns:xlink="http://www.w3.org/1999/xlink" x="0px" y="0px"
	 viewBox="0 0 207.5 143" style="enable-background:new 0 0 207.5 143;" xml:space="preserve">
<style type="text/css">
	.st0{fill:#010101;}
	.st1{fill:#F6EB16;}
</style>
<path class="st0" d="M48.5,0L4.9,34.1L0,85.7L36.2,128L195.4,143l12-127.8L48.5,0z M15.6,66.6c-2.5-0.2-4.2-2.4-4-4.9
	c0.2-2.5,2.4-4.2,4.9-4c2.5,0.2,4.2,2.4,4,4.9C20.3,65,18.1,66.8,15.6,66.6z"/>
<path class="st1" d="M49.5,2.9l-42,32.5L2.6,84.7l34.9,40.5l155.6,14.9l11.5-122.3L49.5,2.9z M23.1,62.8c-0.4,3.9-3.8,6.7-7.7,6.4
	c-3.9-0.4-6.7-3.8-6.4-7.7c0.4-3.9,3.8-6.7,7.7-6.4C20.6,55.5,23.5,58.9,23.1,62.8z"/>
<polygon class="st0" points="79.2,29.6 114.4,33 113.4,43.5 97.6,42 97.3,45.4 111.7,46.8 110.8,56.4 96.4,55.1 96,58.9 112.2,60.5 
	111.3,70.5 75.8,67.1 "/>
<path class="st0" d="M119.7,58.1l-6.7,9.8c0,0,8.4,4.5,20,5.5c11.6,1,20.1-2.3,22.8-7.8c2.7-5.5-0.5-11.8-5.9-13.6
	c-5.4-1.7-14.7-3.6-13.7-5.4c1-1.8,6.8-1.5,10.4,0c3.6,1.5,4.5,2.4,4.5,2.4l6.1-8.7c0,0-6.5-4.8-18.6-5.5
	c-12.2-0.7-21.1,5.4-21.7,11c-0.6,5.7,3,9,8.5,11c0,0,4.7,1.5,8.2,2.3c3.5,0.8,5.8,3.1,1.6,3.9C130.9,63.8,122.2,60.7,119.7,58.1z"
	/>
<polygon class="st0" points="168.1,50.5 157.7,49.5 158.9,37.3 198.8,41.1 197.6,53.3 187.2,52.3 184.8,77.7 165.9,75.9 "/>
<path class="st0" d="M82.2,72.4l18.3,1.7l-1.9,21.3c0,0-1.8,5.1,4.3,5.7c6.1,0.6,5.8-4.9,5.8-4.9l2-21l18.4,1.8l-2.4,24.7
	c0,0-2.2,13.5-24.7,11.4c-22.5-2.1-22.2-16.4-22.2-16.4L82.2,72.4z"/>
<polygon class="st0" points="150.1,78.9 155.4,89.3 162.2,80.1 183.5,82.1 163.6,101.8 162.1,118 143.3,116.2 144.8,100.3 128.9,77 
	"/>
<path class="st0" d="M70.4,89.8c0,0,7.7-1.5,7.5-9.4c-0.2-7.9-15.9-9.8-15.9-9.8L36,68l-3.5,37.6c0,0,20.7,2.2,26.8,2.7
	c6,0.5,18.2,0,19.4-7.8C79.8,92.7,70.4,89.8,70.4,89.8z M52.6,79c0,0,8-0.7,7.5,3c-0.4,3.7-8,2-8,2L52.6,79z M51,98.2l0.4-6.1
	c0,0,10-0.4,9.6,3.9C60.7,100.3,51,98.2,51,98.2z"/>
<path class="st0" d="M66.6,46.7c0,0,7.7-1.5,7.5-9.4c-0.2-7.9-15.9-9.8-15.9-9.8l-26-2.6l-3.5,37.6c0,0,20.7,2.2,26.8,2.7
	c6,0.5,18.2,0,19.4-7.8C76,49.6,66.6,46.7,66.6,46.7z M49,36c0,0,8-0.7,7.5,3c-0.4,3.7-8,2-8,2L49,36z M47.3,55.2l0.4-6.1
	c0,0,10-0.4,9.6,3.9C57.1,57.3,47.3,55.2,47.3,55.2z"/>
<path class="st0" d="M183.6,85.8c0.2-1.7,1.6-2.9,3.3-2.7c1.7,0.2,2.9,1.6,2.7,3.3c-0.2,1.7-1.6,2.9-3.3,2.7
	C184.7,89,183.5,87.5,183.6,85.8z M188.9,86.3c0.1-1.4-0.8-2.5-2-2.6c-1.3-0.1-2.4,0.8-2.5,2.2c-0.1,1.4,0.8,2.5,2,2.7
	C187.7,88.7,188.8,87.7,188.9,86.3z M185.7,84.3l1.3,0.1c0.8,0.1,1.2,0.4,1.2,1.1c-0.1,0.6-0.4,0.8-1,0.8l0.8,1.6l-0.7-0.1l-0.7-1.6
	l-0.4,0l-0.1,1.5l-0.6-0.1L185.7,84.3z M186.2,85.8l0.6,0.1c0.4,0,0.7,0,0.8-0.4c0-0.4-0.3-0.5-0.6-0.5l-0.6-0.1L186.2,85.8z"/>
</svg>
